# xmcd
#
# Track frame offsets:
#	150
#	14125
#	30387
#	50487
#	58025
#	70250
#	89600
#	105387
#	121312
#	137697
#	154800
#	170812
#
# Disc length: 2520 seconds
#
# Revision: 1
# Processed by: cddbd v1.5PL3 Copyright (c) Steve Scherf et al.
# Submitted via: CDex 1.50Beta5
#
DISCID=a609d60c
DTITLE=ふきのとう - 風来坊
DYEAR=1990
DGENRE=New Age
TTITLE0=水色の木もれ陽
TTITLE1=五色のテープ
TTITLE2=白い霧
TTITLE3=レクイエム8.27
TTITLE4=冬の朝
TTITLE5=銀杏の木
TTITLE6=それぞれの幸せ灯る頃
TTITLE7=雨はやさしいオルゴール
TTITLE8=Bye Bye Bye
TTITLE9=Uncle あるちゅうの唄
TTITLE10=夜
TTITLE11=風来坊
EXTD=
EXTT0=
EXTT1=
EXTT2=
EXTT3=
EXTT4=
EXTT5=
EXTT6=
EXTT7=
EXTT8=
EXTT9=
EXTT10=
EXTT11=
PLAYORDER=
